<svg width="24" height="23" viewBox="0 0 24 23" fill="none" xmlns="http://www.w3.org/2000/svg">
<path d="M12.0001 16.6271C12.9003 16.6271 13.6301 15.9277 13.6301 15.065C13.6301 14.2023 12.9003 13.5029 12.0001 13.5029C11.0999 13.5029 10.3701 14.2023 10.3701 15.065C10.3701 15.9277 11.0999 16.6271 12.0001 16.6271Z" fill="#292D32"/>
<path d="M18.28 9.13292V7.935C18.28 5.3475 17.63 1.91667 12 1.91667C6.37 1.91667 5.72 5.3475 5.72 7.935V9.13292C2.92 9.46834 2 10.8292 2 14.1738V15.9563C2 19.8854 3.25 21.0833 7.35 21.0833H16.65C20.75 21.0833 22 19.8854 22 15.9563V14.1738C22 10.8292 21.08 9.46834 18.28 9.13292ZM12 17.9592C10.33 17.9592 8.98 16.6558 8.98 15.065C8.98 13.4646 10.34 12.1708 12 12.1708C13.66 12.1708 15.02 13.4742 15.02 15.065C15.02 16.6654 13.67 17.9592 12 17.9592ZM7.35 9.04667C7.27 9.04667 7.2 9.04667 7.12 9.04667V7.935C7.12 5.12709 7.95 3.25834 12 3.25834C16.05 3.25834 16.88 5.12709 16.88 7.935V9.05625C16.8 9.05625 16.73 9.05625 16.65 9.05625H7.35V9.04667Z" fill="#292D32"/>
</svg>
