<svg width="24" height="23" viewBox="0 0 24 23" fill="none" xmlns="http://www.w3.org/2000/svg">
<path d="M16.19 1.91667H7.81C4.17 1.91667 2 3.99625 2 7.48459V15.5058C2 19.0038 4.17 21.0833 7.81 21.0833H16.18C19.82 21.0833 21.99 19.0038 21.99 15.5154V7.48459C22 3.99625 19.83 1.91667 16.19 1.91667ZM13.79 14.375C14.08 14.6529 14.08 15.1129 13.79 15.3908C13.64 15.5346 13.45 15.6017 13.26 15.6017C13.07 15.6017 12.88 15.5346 12.73 15.3908L9.2 12.0079C8.91 11.73 8.91 11.27 9.2 10.9921L12.73 7.60917C13.02 7.33126 13.5 7.33126 13.79 7.60917C14.08 7.88709 14.08 8.34709 13.79 8.625L10.79 11.5L13.79 14.375Z" fill="#292D32"/>
</svg>
