<svg width="12" height="12" viewBox="0 0 12 12" fill="none" xmlns="http://www.w3.org/2000/svg">
<path d="M7.3268 6.00028L11.0377 2.28935C11.2139 2.11354 11.3129 1.87496 11.3131 1.62611C11.3134 1.37726 11.2147 1.13851 11.0389 0.962393C10.8631 0.786273 10.6245 0.687206 10.3757 0.686986C10.1268 0.686766 9.88807 0.785412 9.71195 0.961221L6.00102 4.67216L2.29008 0.961221C2.11396 0.785101 1.87509 0.686157 1.62602 0.686157C1.37694 0.686157 1.13807 0.785101 0.961953 0.961221C0.785833 1.13734 0.68689 1.37621 0.68689 1.62528C0.68689 1.87436 0.785833 2.11323 0.961953 2.28935L4.67289 6.00028L0.961953 9.71122C0.785833 9.88734 0.68689 10.1262 0.68689 10.3753C0.68689 10.6244 0.785833 10.8632 0.961953 11.0393C1.13807 11.2155 1.37694 11.3144 1.62602 11.3144C1.87509 11.3144 2.11396 11.2155 2.29008 11.0393L6.00102 7.32841L9.71195 11.0393C9.88807 11.2155 10.1269 11.3144 10.376 11.3144C10.6251 11.3144 10.864 11.2155 11.0401 11.0393C11.2162 10.8632 11.3151 10.6244 11.3151 10.3753C11.3151 10.1262 11.2162 9.88734 11.0401 9.71122L7.3268 6.00028Z" fill="#1F1F1F"/>
</svg>
