<svg width="24" height="23" viewBox="0 0 24 23" fill="none" xmlns="http://www.w3.org/2000/svg">
<path d="M16.7502 3.41169V1.91669C16.7502 1.52377 16.4102 1.19794 16.0002 1.19794C15.5902 1.19794 15.2502 1.52377 15.2502 1.91669V3.35419H8.75023V1.91669C8.75023 1.52377 8.41023 1.19794 8.00023 1.19794C7.59023 1.19794 7.25023 1.52377 7.25023 1.91669V3.41169C4.55023 3.65127 3.24023 5.19419 3.04023 7.4846C3.02023 7.76252 3.26023 7.99252 3.54023 7.99252H20.4602C20.7502 7.99252 20.9902 7.75294 20.9602 7.4846C20.7602 5.19419 19.4502 3.65127 16.7502 3.41169Z" fill="#292D32"/>
<path d="M20 9.42999H4C3.45 9.42999 3 9.86124 3 10.3883V16.2917C3 19.1667 4.5 21.0833 8 21.0833H16C19.5 21.0833 21 19.1667 21 16.2917V10.3883C21 9.86124 20.55 9.42999 20 9.42999ZM9.21 17.4512C9.16 17.4896 9.11 17.5375 9.06 17.5662C9 17.6046 8.94 17.6333 8.88 17.6525C8.82 17.6812 8.76 17.7004 8.7 17.71C8.63 17.7196 8.57 17.7292 8.5 17.7292C8.37 17.7292 8.24 17.7004 8.12 17.6525C7.99 17.6046 7.89 17.5375 7.79 17.4512C7.61 17.2692 7.5 17.02 7.5 16.7708C7.5 16.5217 7.61 16.2725 7.79 16.0904C7.89 16.0042 7.99 15.9371 8.12 15.8892C8.3 15.8125 8.5 15.7933 8.7 15.8317C8.76 15.8412 8.82 15.8604 8.88 15.8892C8.94 15.9083 9 15.9371 9.06 15.9754C9.11 16.0137 9.16 16.0521 9.21 16.0904C9.39 16.2725 9.5 16.5217 9.5 16.7708C9.5 17.02 9.39 17.2692 9.21 17.4512ZM9.21 14.0971C9.02 14.2696 8.76 14.375 8.5 14.375C8.24 14.375 7.98 14.2696 7.79 14.0971C7.61 13.915 7.5 13.6658 7.5 13.4167C7.5 13.1675 7.61 12.9183 7.79 12.7362C8.07 12.4679 8.51 12.3817 8.88 12.535C9.01 12.5829 9.12 12.65 9.21 12.7362C9.39 12.9183 9.5 13.1675 9.5 13.4167C9.5 13.6658 9.39 13.915 9.21 14.0971ZM12.71 17.4512C12.52 17.6237 12.26 17.7292 12 17.7292C11.74 17.7292 11.48 17.6237 11.29 17.4512C11.11 17.2692 11 17.02 11 16.7708C11 16.5217 11.11 16.2725 11.29 16.0904C11.66 15.7358 12.34 15.7358 12.71 16.0904C12.89 16.2725 13 16.5217 13 16.7708C13 17.02 12.89 17.2692 12.71 17.4512ZM12.71 14.0971C12.66 14.1354 12.61 14.1737 12.56 14.2121C12.5 14.2504 12.44 14.2792 12.38 14.2983C12.32 14.3271 12.26 14.3462 12.2 14.3558C12.13 14.3654 12.07 14.375 12 14.375C11.74 14.375 11.48 14.2696 11.29 14.0971C11.11 13.915 11 13.6658 11 13.4167C11 13.1675 11.11 12.9183 11.29 12.7362C11.38 12.65 11.49 12.5829 11.62 12.535C11.99 12.3817 12.43 12.4679 12.71 12.7362C12.89 12.9183 13 13.1675 13 13.4167C13 13.6658 12.89 13.915 12.71 14.0971ZM16.21 17.4512C16.02 17.6237 15.76 17.7292 15.5 17.7292C15.24 17.7292 14.98 17.6237 14.79 17.4512C14.61 17.2692 14.5 17.02 14.5 16.7708C14.5 16.5217 14.61 16.2725 14.79 16.0904C15.16 15.7358 15.84 15.7358 16.21 16.0904C16.39 16.2725 16.5 16.5217 16.5 16.7708C16.5 17.02 16.39 17.2692 16.21 17.4512ZM16.21 14.0971C16.16 14.1354 16.11 14.1737 16.06 14.2121C16 14.2504 15.94 14.2792 15.88 14.2983C15.82 14.3271 15.76 14.3462 15.7 14.3558C15.63 14.3654 15.56 14.375 15.5 14.375C15.24 14.375 14.98 14.2696 14.79 14.0971C14.61 13.915 14.5 13.6658 14.5 13.4167C14.5 13.1675 14.61 12.9183 14.79 12.7362C14.89 12.65 14.99 12.5829 15.12 12.535C15.3 12.4583 15.5 12.4392 15.7 12.4775C15.76 12.4871 15.82 12.5062 15.88 12.535C15.94 12.5542 16 12.5829 16.06 12.6212C16.11 12.6596 16.16 12.6979 16.21 12.7362C16.39 12.9183 16.5 13.1675 16.5 13.4167C16.5 13.6658 16.39 13.915 16.21 14.0971Z" fill="#292D32"/>
</svg>
