<svg width="24" height="23" viewBox="0 0 24 23" fill="none" xmlns="http://www.w3.org/2000/svg">
<path d="M16.19 1.91666H7.81C4.17 1.91666 2 3.99624 2 7.48457V15.5058C2 19.0037 4.17 21.0833 7.81 21.0833H16.18C19.82 21.0833 21.99 19.0037 21.99 15.5154V7.48457C22 3.99624 19.83 1.91666 16.19 1.91666ZM10.95 16.7804C10.66 17.0583 10.11 17.3267 9.71 17.3842L7.25 17.7196C7.16 17.7292 7.07 17.7387 6.98 17.7387C6.57 17.7387 6.19 17.6046 5.92 17.3458C5.59 17.0296 5.45 16.5696 5.53 16.0617L5.88 13.7042C5.94 13.3112 6.21 12.7937 6.51 12.5158L10.97 8.24166C11.05 8.44291 11.13 8.64416 11.24 8.87416C11.34 9.07541 11.45 9.28624 11.57 9.47791C11.67 9.64082 11.78 9.79416 11.87 9.90916C11.98 10.0721 12.11 10.2254 12.19 10.3117C12.24 10.3787 12.28 10.4267 12.3 10.4458C12.55 10.7333 12.84 11.0017 13.09 11.2029C13.16 11.27 13.2 11.3083 13.22 11.3179C13.37 11.4329 13.52 11.5479 13.65 11.6342C13.81 11.7492 13.97 11.8546 14.14 11.9408C14.34 12.0558 14.56 12.1612 14.78 12.2667C15.01 12.3625 15.22 12.4487 15.43 12.5158L10.95 16.7804ZM17.37 10.6279L16.45 11.5192C16.39 11.5767 16.31 11.6054 16.23 11.6054C16.2 11.6054 16.16 11.6054 16.14 11.5958C14.11 11.04 12.49 9.48749 11.91 7.54207C11.88 7.43666 11.91 7.32166 11.99 7.25457L12.92 6.36332C14.44 4.90666 15.89 4.93541 17.38 6.36332C18.14 7.09166 18.51 7.79124 18.51 8.51957C18.5 9.20957 18.13 9.89957 17.37 10.6279Z" fill="#292D32"/>
</svg>
