<svg width="24" height="23" viewBox="0 0 24 23" fill="none" xmlns="http://www.w3.org/2000/svg">
<path d="M12 1.91667C6.49 1.91667 2 6.21959 2 11.5C2 16.7804 6.49 21.0833 12 21.0833C17.51 21.0833 22 16.7804 22 11.5C22 6.21959 17.51 1.91667 12 1.91667ZM15.36 13.7042C15.65 13.9821 15.65 14.4421 15.36 14.72C15.21 14.8638 15.02 14.9308 14.83 14.9308C14.64 14.9308 14.45 14.8638 14.3 14.72L12 12.5158L9.7 14.72C9.55 14.8638 9.36 14.9308 9.17 14.9308C8.98 14.9308 8.79 14.8638 8.64 14.72C8.35 14.4421 8.35 13.9821 8.64 13.7042L10.94 11.5L8.64 9.29584C8.35 9.01792 8.35 8.55792 8.64 8.28001C8.93 8.00209 9.41 8.00209 9.7 8.28001L12 10.4842L14.3 8.28001C14.59 8.00209 15.07 8.00209 15.36 8.28001C15.65 8.55792 15.65 9.01792 15.36 9.29584L13.06 11.5L15.36 13.7042Z" fill="#292D32"/>
</svg>
