<svg width="24" height="23" viewBox="0 0 24 23" fill="none" xmlns="http://www.w3.org/2000/svg">
<path d="M21.25 8.76874C18.94 5.28999 15.56 3.28708 12 3.28708C10.22 3.28708 8.49 3.78541 6.91 4.715C5.33 5.65416 3.91 7.02458 2.75 8.76874C1.75 10.2733 1.75 12.7171 2.75 14.2217C5.06 17.71 8.44 19.7033 12 19.7033C13.78 19.7033 15.51 19.205 17.09 18.2754C18.67 17.3362 20.09 15.9658 21.25 14.2217C22.25 12.7267 22.25 10.2733 21.25 8.76874ZM12 15.3717C9.76 15.3717 7.96 13.6371 7.96 11.5C7.96 9.36291 9.76 7.62833 12 7.62833C14.24 7.62833 16.04 9.36291 16.04 11.5C16.04 13.6371 14.24 15.3717 12 15.3717Z" fill="#292D32"/>
<path d="M12.0004 8.75917C10.4304 8.75917 9.15039 9.98584 9.15039 11.5C9.15039 13.0046 10.4304 14.2313 12.0004 14.2313C13.5704 14.2313 14.8604 13.0046 14.8604 11.5C14.8604 9.99542 13.5704 8.75917 12.0004 8.75917Z" fill="#292D32"/>
</svg>
