<svg width="24" height="23" viewBox="0 0 24 23" fill="none" xmlns="http://www.w3.org/2000/svg">
<path d="M12 1.91667C6.48 1.91667 2 6.21 2 11.5C2 16.79 6.48 21.0833 12 21.0833C17.52 21.0833 22 16.79 22 11.5C22 6.21 17.52 1.91667 12 1.91667ZM8.53 12.9088C8.82 13.1867 8.82 13.6467 8.53 13.9246C8.38 14.0683 8.19 14.1354 8 14.1354C7.81 14.1354 7.62 14.0683 7.47 13.9246L5.47 12.0079C5.18 11.73 5.18 11.27 5.47 10.9921L7.47 9.07542C7.76 8.7975 8.24 8.7975 8.53 9.07542C8.82 9.35333 8.82 9.81333 8.53 10.0913L7.06 11.5L8.53 12.9088ZM13.69 9.545L11.69 14.0204C11.57 14.2888 11.29 14.4517 11 14.4517C10.9 14.4517 10.8 14.4325 10.71 14.3942C10.33 14.2408 10.15 13.8192 10.32 13.4454L12.32 8.97C12.48 8.60583 12.92 8.43333 13.3 8.59625C13.68 8.75917 13.85 9.18083 13.69 9.545ZM18.53 12.0079L16.53 13.9246C16.38 14.0683 16.19 14.1354 16 14.1354C15.81 14.1354 15.62 14.0683 15.47 13.9246C15.18 13.6467 15.18 13.1867 15.47 12.9088L16.94 11.5L15.47 10.0913C15.18 9.81333 15.18 9.35333 15.47 9.07542C15.76 8.7975 16.24 8.7975 16.53 9.07542L18.53 10.9921C18.82 11.27 18.82 11.73 18.53 12.0079Z" fill="#292D32"/>
</svg>
