<svg width="24" height="23" viewBox="0 0 24 23" fill="none" xmlns="http://www.w3.org/2000/svg">
<path d="M21.09 6.68918C20.24 5.78834 18.82 5.33793 16.76 5.33793H16.52V5.29959C16.52 3.68959 16.52 1.69626 12.76 1.69626H11.24C7.48004 1.69626 7.48004 3.69918 7.48004 5.29959V5.34751H7.24004C5.17004 5.34751 3.76004 5.79792 2.91004 6.69876C1.92004 7.75292 1.95004 9.17126 2.05004 10.1392L2.06004 10.2063L2.13605 10.9712C2.1512 11.1236 2.23515 11.2606 2.36492 11.3419C2.60543 11.4927 3.00166 11.7373 3.24004 11.8642C3.38004 11.9504 3.53004 12.0271 3.68004 12.1038C5.39004 13.0046 7.27004 13.6083 9.18004 13.9054C9.27004 14.8063 9.68004 15.8604 11.87 15.8604C14.06 15.8604 14.49 14.8158 14.56 13.8863C16.6 13.57 18.57 12.8896 20.35 11.8929C20.41 11.8642 20.45 11.8354 20.5 11.8067C20.8945 11.593 21.3037 11.33 21.6771 11.072C21.794 10.9913 21.8694 10.8636 21.8857 10.7225L21.9 10.5992L21.95 10.1488C21.96 10.0913 21.96 10.0433 21.97 9.97626C22.05 9.00834 22.03 7.68584 21.09 6.68918ZM13.09 13.2538C13.09 14.2696 13.09 14.4229 11.86 14.4229C10.63 14.4229 10.63 14.2408 10.63 13.2633V12.0558H13.09V13.2538ZM8.91004 5.33793V5.29959C8.91004 3.67043 8.91004 3.06668 11.24 3.06668H12.76C15.09 3.06668 15.09 3.68001 15.09 5.29959V5.34751H8.91004V5.33793Z" fill="#292D32"/>
<path d="M20.8794 13.1591C21.233 12.9978 21.6332 13.2795 21.5965 13.6665L21.2398 17.4321C21.0298 19.3487 20.2098 21.3037 15.8098 21.3037H8.18984C3.78984 21.3037 2.96984 19.3487 2.75984 17.4417L2.42138 13.8737C2.38508 13.4911 2.77666 13.2099 3.12924 13.3628C4.26773 13.8566 6.37644 14.7357 7.67759 15.0621C7.84136 15.1032 7.97455 15.2186 8.04896 15.3701C8.65744 16.6097 9.9725 17.2692 11.8698 17.2692C13.7485 17.2692 15.08 16.5843 15.6906 15.3416C15.7651 15.1899 15.8984 15.0746 16.0623 15.0333C17.4441 14.685 19.6889 13.7022 20.8794 13.1591Z" fill="#292D32"/>
</svg>
